<svg xmlns="http://www.w3.org/2000/svg" width="933" height="575" viewBox="0 0 933 575" fill="none">
  <g filter="url(#filter0_f_4_57)">
    <path d="M196.709 18.6091H196.78L196.851 18.6058C252.798 15.9495 286.986 28.5777 318.892 41.9739C321.348 43.0052 323.793 44.0422 326.234 45.0781C355.627 57.5457 384.602 69.8361 428.021 69.8361C439.991 69.8361 457.525 67.2212 477.785 63.1876C498.105 59.142 521.377 53.6248 544.914 47.7327C563.244 43.1442 581.711 38.3351 599.091 33.8091C626.443 26.6863 651.101 20.2648 668.294 16.5082C750.578 -1.47124 814.63 20.0389 862.288 53.691C884.869 69.6352 911.096 102.641 920.966 163.165C927.232 201.588 919.617 251.854 889.745 301.015C867.861 337.03 836.968 370.911 805.057 392.337C772.993 413.865 740.79 422.28 715.623 409.308C677.159 389.482 649.056 380.433 627.905 376.803C606.691 373.162 592.599 374.997 582.285 376.734C528.551 385.783 494.916 403.899 476.425 414.761C456.632 426.388 437.337 443.21 420.336 459.698C411.823 467.953 403.856 476.154 396.668 483.612C395.589 484.731 394.529 485.833 393.487 486.915C387.572 493.06 382.266 498.573 377.662 503.086C348.086 532.075 326.153 547.46 305.708 555.664C285.296 563.854 266.102 565 241.64 565C194.851 565 135.186 533.627 92.5219 481.8C43.5621 422.325 10 330.167 10 254.141C10 111.624 95.9321 18.6091 196.709 18.6091Z" stroke="#203F29" stroke-width="6"/>
  </g>
  <defs>
    <filter id="filter0_f_4_57" x="0.5" y="0.500107" width="932" height="574" filterUnits="userSpaceOnUse" color-interpolation-filters="sRGB">
      <feFlood flood-opacity="0" result="BackgroundImageFix"/>
      <feBlend mode="normal" in="SourceGraphic" in2="BackgroundImageFix" result="shape"/>
      <feGaussianBlur stdDeviation="3.25" result="effect1_foregroundBlur_4_57"/>
    </filter>
  </defs>
</svg>